<svg xmlns="http://www.w3.org/2000/svg" xmlns:xlink="http://www.w3.org/1999/xlink" width="192.222" height="134.173" viewBox="0 0 192.222 134.173"><defs><style>.a{fill:none;}.b{isolation:isolate;}.c{clip-path:url(#a);}.d{fill:#0f2b92;}.e{fill:#ffac2d;}.f{fill:#ff611e;}</style><clipPath id="a"><path class="a" d="M0-5.149H192.222V-139.322H0Z" transform="translate(0 139.322)"/></clipPath></defs><g class="b" transform="translate(0 139.322)"><g class="c" transform="translate(0 -139.322)"><g transform="translate(71.684 33.539)"><path class="d" d="M-.369-.74a9.613,9.613,0,0,0,9.681-9.616A9.668,9.668,0,0,0-.369-20.037a9.613,9.613,0,0,0-9.616,9.681A9.558,9.558,0,0,0-.369-.74" transform="translate(9.985 20.037)"/></g><g transform="translate(99.875 90.437)"><path class="d" d="M-.342,0A9.7,9.7,0,0,0-9.248,5.937H8.5A9.777,9.777,0,0,0-.342,0" transform="translate(9.248)"/></g><g transform="translate(150.345 90.501)"><path class="d" d="M-.371-.74a9.613,9.613,0,0,0,9.681-9.616A9.668,9.668,0,0,0-.371-20.037a9.668,9.668,0,0,0-9.681,9.681A9.613,9.613,0,0,0-.371-.74" transform="translate(10.052 20.037)"/></g><g transform="translate(168.137 38.073)"><path class="d" d="M-.194,0A5.064,5.064,0,0,0-5.26,5.1,5.035,5.035,0,0,0-.194,10.165,5.063,5.063,0,0,0,4.9,5.1,5.092,5.092,0,0,0-.194,0" transform="translate(5.26)"/></g><g transform="translate(0 0)"><path class="d" d="M-4.992-.935a8.239,8.239,0,0,0-.54-2.942,14.61,14.61,0,0,0,1.637-6.738,14.712,14.712,0,0,0-14.7-14.7A14.711,14.711,0,0,0-32.729-14.569c-.192-.013-.382-.029-.578-.029H-44.084a8.238,8.238,0,0,0-7.023,3.927q-1.313-.12-2.657-.119a28.421,28.421,0,0,0-16.2,5.051,8.209,8.209,0,0,0-1.284-.98l-9.293-5.744A8.2,8.2,0,0,0-84.866-13.7a8.238,8.238,0,0,0-7.018,3.907L-101.2,5.276l-9.319-15.065a8.235,8.235,0,0,0-7.017-3.907,8.2,8.2,0,0,0-4.325,1.233l-9.293,5.744A8.243,8.243,0,0,0-134.844-1.6a8.242,8.242,0,0,0,1.012,6.227l25.453,41.161-7.232,3.231A8.241,8.241,0,0,0-119.8,59.855l18.329,41.755a8.242,8.242,0,0,0,7.546,4.93h0a8.241,8.241,0,0,0,7.545-4.937L-80.5,88.189l5.874,13.414a8.243,8.243,0,0,0,7.546,4.936h0a8.242,8.242,0,0,0,7.546-4.93l5.764-13.129a28.682,28.682,0,0,0,27.417,20.382h1.613a8.241,8.241,0,0,0,8.242-8.242V90.083h5.3A8.2,8.2,0,0,0-8.835,95.13l7.486,7.55a8.244,8.244,0,0,0,5.835,2.438H4.5a8.242,8.242,0,0,0,5.828-2.413l2.083-2.084a28.676,28.676,0,1,0,12.547-54.45q-.724,0-1.439.035V42.538c0-.044-.006-.088-.007-.131a8.208,8.208,0,0,0,7.751-6.851,18.879,18.879,0,0,0,6.62,1.289,8.208,8.208,0,0,0,5.352,1.974h5.677a8.242,8.242,0,0,0,8.242-8.242V5.079a8.241,8.241,0,0,0-8.242-8.242H43.238a8.211,8.211,0,0,0-5.392,2.008A18.836,18.836,0,0,0,28.37,1.564,8.2,8.2,0,0,0,23.143-.308H17.466A8.2,8.2,0,0,0,13.383.773L9.633-3.751A8.241,8.241,0,0,0-4.953,1.509ZM3.288,1.509l14.178,17.1V7.934h4.489a18.954,18.954,0,0,0,1.188,21.55v4.7L8.966,17.079V27.756H3.288Zm-16.521,35.18H-24.011V-.935h10.777ZM-18.59-17.069a6.43,6.43,0,0,1,6.453,6.453A6.473,6.473,0,0,1-18.59-4.162a6.432,6.432,0,0,1-6.453-6.454,6.391,6.391,0,0,1,6.453-6.453M-44.084-.032V-6.356h10.777v48.4H-44.084V35.785A19.309,19.309,0,0,1-53.765,38.3,20.354,20.354,0,0,1-74.158,17.909a20.565,20.565,0,0,1,.731-5.431l4.856-7.854A8.193,8.193,0,0,0-67.837,3.1,20.277,20.277,0,0,1-53.765-2.549,19.308,19.308,0,0,1-44.084-.032M-117.53-5.453l16.328,26.4,16.326-26.4,8.78,5.427A28.673,28.673,0,0,0-81,9.048l-20.2,32.674L-126.823.291ZM-67.075,98.3-80.5,67.643-93.922,98.3-112.25,56.543l9.681-4.324,8.648,19.748L-80.5,41.312l13.423,30.655,8.648-19.748,9.681,4.324-.453,1.03a28.5,28.5,0,0,0-5.316,12.109Zm31.24-16.456a9.741,9.741,0,0,0,9.487,8.066h1.613V100.62h-1.613A20.354,20.354,0,0,1-46.741,80.227V74.806a20.678,20.678,0,0,1,.19-2.759l4.521-10.3a20.336,20.336,0,0,1,15.683-7.335A20.409,20.409,0,0,1-5.89,74.806v5.772l-1.262,1.263Zm60.8-27.428A20.426,20.426,0,1,1,11.345,90.037L4.5,96.877l-7.328-7.39A8.256,8.256,0,0,0,1.94,84.4L4.5,81.841v-39.3H15.281V56.93a19.311,19.311,0,0,1,9.681-2.517M48.915,30.577H43.238v-3.3a10.164,10.164,0,0,1-5.1,1.326,10.7,10.7,0,0,1-6.753-2.383V9.481a10.671,10.671,0,0,1,6.753-2.4,10.174,10.174,0,0,1,5.1,1.326V5.079h5.677Z" transform="translate(135.064 25.311)"/></g></g><g transform="translate(8.242 -119.464)"><path class="e" d="M-.983-1.013l16.327-26.4,9.293,5.744L-.983,19.768-26.6-21.664l9.293-5.744Z" transform="translate(26.604 27.408)"/></g><g class="c" transform="translate(0 -139.322)"><g transform="translate(60.906 18.954)"><path class="e" d="M-1.568,0V48.4H-12.345v-6.26a19.308,19.308,0,0,1-9.681,2.516A20.353,20.353,0,0,1-42.419,24.266,20.409,20.409,0,0,1-22.026,3.808a19.308,19.308,0,0,1,9.681,2.516V0ZM-31.642,24.266a9.557,9.557,0,0,0,9.616,9.615,9.612,9.612,0,0,0,9.681-9.615,9.668,9.668,0,0,0-9.681-9.681,9.613,9.613,0,0,0-9.616,9.681" transform="translate(42.419)"/></g><g transform="translate(110.021 8.242)"><path class="e" d="M-.248-.5A6.431,6.431,0,0,1-6.7-6.949,6.391,6.391,0,0,1-.248-13.4,6.43,6.43,0,0,1,6.206-6.949,6.472,6.472,0,0,1-.248-.5M5.109,40.356H-5.669V2.732H5.109Z" transform="translate(6.701 13.402)"/></g></g><g transform="translate(22.814 -72.699)"><path class="e" d="M-.7-1.176,12.72-31.831,26.143-1.176l8.648-19.748L44.472-16.6,26.143,25.154,12.72-5.5-.7,25.154-19.032-16.6l9.681-4.324Z" transform="translate(19.032 31.831)"/></g><g class="c" transform="translate(0 -139.322)"><g transform="translate(88.323 79.723)"><path class="e" d="M-.783-1.362H.831V9.351H-.783A20.354,20.354,0,0,1-21.176-11.043v-5.421A20.354,20.354,0,0,1-.783-36.857,20.409,20.409,0,0,1,19.675-16.464v7.035H-10.27A9.741,9.741,0,0,0-.783-1.362m.065-24.782a9.7,9.7,0,0,0-8.906,5.938H8.124A9.777,9.777,0,0,0-.718-26.144" transform="translate(21.176 36.857)"/></g><g transform="translate(132.082 67.849)"><path class="e" d="M-1.072-.456A20.409,20.409,0,0,1,19.386,19.938,20.464,20.464,0,0,1-1.072,40.4,20.293,20.293,0,0,1-14.69,35.168l-6.84,6.84-7.486-7.55,7.486-7.487v-39.3h10.777V2.062A19.3,19.3,0,0,1-1.072-.456M-10.753,20a9.613,9.613,0,0,0,9.681,9.616A9.613,9.613,0,0,0,8.608,20a9.668,9.668,0,0,0-9.681-9.681A9.668,9.668,0,0,0-10.753,20" transform="translate(29.016 12.33)"/></g></g><g transform="translate(138.352 -112.503)"><path class="f" d="M-.762-1.254l-14.177-17.1V-7.679h-5.678V-33.926l14.178,17.1V-27.5H-.762Z" transform="translate(20.617 33.926)"/></g><g class="c" transform="translate(0 -139.322)"><g transform="translate(162.459 30.389)"><path class="f" d="M-.826,0V25.5H-6.5V22.2a10.172,10.172,0,0,1-5.1,1.325A10.722,10.722,0,0,1-22.347,12.783,10.752,10.752,0,0,1-11.6,2.006,10.163,10.163,0,0,1-6.5,3.332V0ZM-16.669,12.783A5.035,5.035,0,0,0-11.6,17.849a5.064,5.064,0,0,0,5.1-5.066,5.093,5.093,0,0,0-5.1-5.1,5.065,5.065,0,0,0-5.066,5.1" transform="translate(22.347)"/></g></g></g></svg>